# xmcd CD database file
#
# Track frame offsets:
#	150
#	15767
#	36767
#	58156
#	75308
#	91930
#
# Disc length: 1420 seconds
#
# Revision: 0
# Processed by: cddbd v1.5.2PL0 Copyright (c) Steve Scherf et al.
# Submitted via: CDex 1.51
#
DISCID=34058a06
DTITLE=Bar Roaches - Blues-Rock
DYEAR=1998
DGENRE=Blues
TTITLE0=Back in the night
TTITLE1=You don't love me
TTITLE2=I'm tore down
TTITLE3=Don't you lie to me
TTITLE4=Caldonia
TTITLE5=Walking the dog
EXTD=YEAR: 1998
EXTT0=
EXTT1=
EXTT2=
EXTT3=
EXTT4=
EXTT5=
PLAYORDER=
